#define cpu_width 8
#define cpu_height 8
static char cpu_bits[] = {
  0x24, 0x7E, 0xC3, 0x42, 0x42, 0xC3, 0x7E, 0x24, };
